# xmcd
# 
# Track frame offsets:
#	150
#	18855
#	34822
#
# Disc length: 671 seconds
#
# Revision: 2
# Processed by: cddbd v1.5.1PL0 Copyright (c) Steve Scherf et al.
# Submitted via: Audio-CD-Archiv 3.00.486
#
DISCID=18029d03
DTITLE=Too Hot - Big Time Demo
DYEAR=1900
DGENRE=blues
TTITLE0=It's a Shame
TTITLE1=Kingston Town
TTITLE2=Big Time
EXTD=
EXTT0=
EXTT1=
EXTT2=
PLAYORDER=
